<mxfile host="app.diagrams.net" modified="2022-01-20T07:13:07.756Z" agent="5.0 (X11)" etag="eI-iLjNq5FYRru5ga5o9" version="16.4.2" type="github" pages="3">
  <diagram id="jvKPNjdnnmKybwGssosP" name="Page-1">
    <mxGraphModel dx="981" dy="492" grid="1" gridSize="10" guides="1" tooltips="1" connect="1" arrows="1" fold="1" page="1" pageScale="1" pageWidth="827" pageHeight="1169" math="0" shadow="0">
      <root>
        <mxCell id="0" />
        <mxCell id="1" parent="0" />
        <mxCell id="XrI-w4eT_huVJNDsQDX--10" style="edgeStyle=orthogonalEdgeStyle;rounded=0;orthogonalLoop=1;jettySize=auto;html=1;entryX=0.5;entryY=0;entryDx=0;entryDy=0;entryPerimeter=0;" edge="1" parent="1" source="E5_BOvUNd26cAFJuRAle-1" target="XrI-w4eT_huVJNDsQDX--3">
          <mxGeometry relative="1" as="geometry" />
        </mxCell>
        <mxCell id="E5_BOvUNd26cAFJuRAle-1" value="START" style="strokeWidth=2;html=1;shape=mxgraph.flowchart.terminator;whiteSpace=wrap;" vertex="1" parent="1">
          <mxGeometry x="364" y="50" width="100" height="60" as="geometry" />
        </mxCell>
        <mxCell id="XrI-w4eT_huVJNDsQDX--12" style="edgeStyle=orthogonalEdgeStyle;rounded=0;orthogonalLoop=1;jettySize=auto;html=1;" edge="1" parent="1" source="XrI-w4eT_huVJNDsQDX--1" target="XrI-w4eT_huVJNDsQDX--11">
          <mxGeometry relative="1" as="geometry" />
        </mxCell>
        <mxCell id="XrI-w4eT_huVJNDsQDX--1" value="&lt;div&gt;Login&lt;/div&gt;" style="html=1;strokeWidth=2;shape=manualInput;whiteSpace=wrap;rounded=1;size=26;arcSize=11;" vertex="1" parent="1">
          <mxGeometry x="364" y="290" width="100" height="60" as="geometry" />
        </mxCell>
        <mxCell id="XrI-w4eT_huVJNDsQDX--5" style="edgeStyle=orthogonalEdgeStyle;rounded=0;orthogonalLoop=1;jettySize=auto;html=1;" edge="1" parent="1" source="XrI-w4eT_huVJNDsQDX--3" target="XrI-w4eT_huVJNDsQDX--4">
          <mxGeometry relative="1" as="geometry" />
        </mxCell>
        <mxCell id="XrI-w4eT_huVJNDsQDX--8" style="edgeStyle=orthogonalEdgeStyle;rounded=0;orthogonalLoop=1;jettySize=auto;html=1;entryX=0.5;entryY=0;entryDx=0;entryDy=0;" edge="1" parent="1" source="XrI-w4eT_huVJNDsQDX--3" target="XrI-w4eT_huVJNDsQDX--1">
          <mxGeometry relative="1" as="geometry" />
        </mxCell>
        <mxCell id="XrI-w4eT_huVJNDsQDX--3" value="Punya Akun?" style="strokeWidth=2;html=1;shape=mxgraph.flowchart.decision;whiteSpace=wrap;" vertex="1" parent="1">
          <mxGeometry x="364" y="150" width="100" height="100" as="geometry" />
        </mxCell>
        <mxCell id="XrI-w4eT_huVJNDsQDX--9" style="edgeStyle=orthogonalEdgeStyle;rounded=0;orthogonalLoop=1;jettySize=auto;html=1;entryX=1;entryY=0.5;entryDx=0;entryDy=0;" edge="1" parent="1" source="XrI-w4eT_huVJNDsQDX--4" target="XrI-w4eT_huVJNDsQDX--1">
          <mxGeometry relative="1" as="geometry">
            <Array as="points">
              <mxPoint x="600" y="320" />
            </Array>
          </mxGeometry>
        </mxCell>
        <mxCell id="XrI-w4eT_huVJNDsQDX--4" value="Register" style="html=1;strokeWidth=2;shape=manualInput;whiteSpace=wrap;rounded=1;size=26;arcSize=11;" vertex="1" parent="1">
          <mxGeometry x="550" y="170" width="100" height="60" as="geometry" />
        </mxCell>
        <mxCell id="XrI-w4eT_huVJNDsQDX--11" value="mencari barang" style="html=1;strokeWidth=2;shape=manualInput;whiteSpace=wrap;rounded=1;size=26;arcSize=11;" vertex="1" parent="1">
          <mxGeometry x="364" y="400" width="100" height="60" as="geometry" />
        </mxCell>
      </root>
    </mxGraphModel>
  </diagram>
  <diagram id="pXUpf4Mss1jOVb1dHpjh" name="Page-2">
    <mxGraphModel dx="813" dy="408" grid="1" gridSize="10" guides="1" tooltips="1" connect="1" arrows="1" fold="1" page="1" pageScale="1" pageWidth="827" pageHeight="1169" math="0" shadow="0">
      <root>
        <mxCell id="wTLGTZsy0lD8wvmcB5D7-0" />
        <mxCell id="wTLGTZsy0lD8wvmcB5D7-1" parent="wTLGTZsy0lD8wvmcB5D7-0" />
        <mxCell id="a8mAN6HkkDCHwP6zJwZw-8" style="rounded=0;orthogonalLoop=1;jettySize=auto;html=1;" edge="1" parent="wTLGTZsy0lD8wvmcB5D7-1" source="a8mAN6HkkDCHwP6zJwZw-0" target="a8mAN6HkkDCHwP6zJwZw-7">
          <mxGeometry relative="1" as="geometry" />
        </mxCell>
        <mxCell id="a8mAN6HkkDCHwP6zJwZw-9" value="&lt;div&gt;&lt;br&gt;&lt;/div&gt;" style="edgeLabel;html=1;align=center;verticalAlign=middle;resizable=0;points=[];" vertex="1" connectable="0" parent="a8mAN6HkkDCHwP6zJwZw-8">
          <mxGeometry x="-0.4934" relative="1" as="geometry">
            <mxPoint as="offset" />
          </mxGeometry>
        </mxCell>
        <mxCell id="a8mAN6HkkDCHwP6zJwZw-14" style="rounded=0;orthogonalLoop=1;jettySize=auto;html=1;" edge="1" parent="wTLGTZsy0lD8wvmcB5D7-1" source="a8mAN6HkkDCHwP6zJwZw-0" target="a8mAN6HkkDCHwP6zJwZw-13">
          <mxGeometry relative="1" as="geometry" />
        </mxCell>
        <mxCell id="a8mAN6HkkDCHwP6zJwZw-22" style="edgeStyle=none;rounded=0;orthogonalLoop=1;jettySize=auto;html=1;" edge="1" parent="wTLGTZsy0lD8wvmcB5D7-1" source="a8mAN6HkkDCHwP6zJwZw-0" target="a8mAN6HkkDCHwP6zJwZw-16">
          <mxGeometry relative="1" as="geometry" />
        </mxCell>
        <mxCell id="a8mAN6HkkDCHwP6zJwZw-23" style="edgeStyle=none;rounded=0;orthogonalLoop=1;jettySize=auto;html=1;" edge="1" parent="wTLGTZsy0lD8wvmcB5D7-1" source="a8mAN6HkkDCHwP6zJwZw-0" target="a8mAN6HkkDCHwP6zJwZw-17">
          <mxGeometry relative="1" as="geometry" />
        </mxCell>
        <mxCell id="a8mAN6HkkDCHwP6zJwZw-24" style="edgeStyle=none;rounded=0;orthogonalLoop=1;jettySize=auto;html=1;" edge="1" parent="wTLGTZsy0lD8wvmcB5D7-1" source="a8mAN6HkkDCHwP6zJwZw-0" target="a8mAN6HkkDCHwP6zJwZw-18">
          <mxGeometry relative="1" as="geometry" />
        </mxCell>
        <mxCell id="a8mAN6HkkDCHwP6zJwZw-0" value="Seller" style="shape=umlActor;verticalLabelPosition=bottom;verticalAlign=top;html=1;outlineConnect=0;" vertex="1" parent="wTLGTZsy0lD8wvmcB5D7-1">
          <mxGeometry x="70" y="420" width="30" height="60" as="geometry" />
        </mxCell>
        <mxCell id="a8mAN6HkkDCHwP6zJwZw-19" style="edgeStyle=none;rounded=0;orthogonalLoop=1;jettySize=auto;html=1;" edge="1" parent="wTLGTZsy0lD8wvmcB5D7-1" source="a8mAN6HkkDCHwP6zJwZw-2" target="a8mAN6HkkDCHwP6zJwZw-16">
          <mxGeometry relative="1" as="geometry" />
        </mxCell>
        <mxCell id="a8mAN6HkkDCHwP6zJwZw-20" style="edgeStyle=none;rounded=0;orthogonalLoop=1;jettySize=auto;html=1;" edge="1" parent="wTLGTZsy0lD8wvmcB5D7-1" source="a8mAN6HkkDCHwP6zJwZw-2" target="a8mAN6HkkDCHwP6zJwZw-17">
          <mxGeometry relative="1" as="geometry" />
        </mxCell>
        <mxCell id="a8mAN6HkkDCHwP6zJwZw-21" style="edgeStyle=none;rounded=0;orthogonalLoop=1;jettySize=auto;html=1;" edge="1" parent="wTLGTZsy0lD8wvmcB5D7-1" source="a8mAN6HkkDCHwP6zJwZw-2" target="a8mAN6HkkDCHwP6zJwZw-18">
          <mxGeometry relative="1" as="geometry" />
        </mxCell>
        <mxCell id="a8mAN6HkkDCHwP6zJwZw-2" value="Reviewer" style="shape=umlActor;verticalLabelPosition=bottom;verticalAlign=top;html=1;outlineConnect=0;" vertex="1" parent="wTLGTZsy0lD8wvmcB5D7-1">
          <mxGeometry x="70" y="555" width="30" height="60" as="geometry" />
        </mxCell>
        <mxCell id="a8mAN6HkkDCHwP6zJwZw-11" style="rounded=0;orthogonalLoop=1;jettySize=auto;html=1;entryX=1;entryY=0.5;entryDx=0;entryDy=0;" edge="1" parent="wTLGTZsy0lD8wvmcB5D7-1" source="a8mAN6HkkDCHwP6zJwZw-3" target="a8mAN6HkkDCHwP6zJwZw-10">
          <mxGeometry relative="1" as="geometry">
            <mxPoint x="560" y="500" as="targetPoint" />
          </mxGeometry>
        </mxCell>
        <mxCell id="a8mAN6HkkDCHwP6zJwZw-15" style="edgeStyle=none;rounded=0;orthogonalLoop=1;jettySize=auto;html=1;" edge="1" parent="wTLGTZsy0lD8wvmcB5D7-1" source="a8mAN6HkkDCHwP6zJwZw-3" target="a8mAN6HkkDCHwP6zJwZw-13">
          <mxGeometry relative="1" as="geometry" />
        </mxCell>
        <mxCell id="a8mAN6HkkDCHwP6zJwZw-26" style="edgeStyle=none;rounded=0;orthogonalLoop=1;jettySize=auto;html=1;" edge="1" parent="wTLGTZsy0lD8wvmcB5D7-1" source="a8mAN6HkkDCHwP6zJwZw-3" target="a8mAN6HkkDCHwP6zJwZw-16">
          <mxGeometry relative="1" as="geometry" />
        </mxCell>
        <mxCell id="a8mAN6HkkDCHwP6zJwZw-28" style="edgeStyle=none;rounded=0;orthogonalLoop=1;jettySize=auto;html=1;" edge="1" parent="wTLGTZsy0lD8wvmcB5D7-1" source="a8mAN6HkkDCHwP6zJwZw-3" target="a8mAN6HkkDCHwP6zJwZw-17">
          <mxGeometry relative="1" as="geometry" />
        </mxCell>
        <mxCell id="a8mAN6HkkDCHwP6zJwZw-29" style="edgeStyle=none;rounded=0;orthogonalLoop=1;jettySize=auto;html=1;" edge="1" parent="wTLGTZsy0lD8wvmcB5D7-1" source="a8mAN6HkkDCHwP6zJwZw-3" target="a8mAN6HkkDCHwP6zJwZw-18">
          <mxGeometry relative="1" as="geometry" />
        </mxCell>
        <mxCell id="a8mAN6HkkDCHwP6zJwZw-3" value="&lt;div&gt;Buyer&lt;/div&gt;" style="shape=umlActor;verticalLabelPosition=bottom;verticalAlign=top;html=1;outlineConnect=0;" vertex="1" parent="wTLGTZsy0lD8wvmcB5D7-1">
          <mxGeometry x="600" y="460" width="30" height="60" as="geometry" />
        </mxCell>
        <mxCell id="a8mAN6HkkDCHwP6zJwZw-4" value="ebay usecase diagram&#xa;" style="swimlane;startSize=0;" vertex="1" parent="wTLGTZsy0lD8wvmcB5D7-1">
          <mxGeometry x="170" y="350" width="380" height="400" as="geometry" />
        </mxCell>
        <mxCell id="a8mAN6HkkDCHwP6zJwZw-7" value="sell item" style="ellipse;whiteSpace=wrap;html=1;" vertex="1" parent="a8mAN6HkkDCHwP6zJwZw-4">
          <mxGeometry x="150" y="60" width="80" height="40" as="geometry" />
        </mxCell>
        <mxCell id="a8mAN6HkkDCHwP6zJwZw-10" value="buy item" style="ellipse;whiteSpace=wrap;html=1;" vertex="1" parent="wTLGTZsy0lD8wvmcB5D7-1">
          <mxGeometry x="320" y="460" width="80" height="40" as="geometry" />
        </mxCell>
        <mxCell id="a8mAN6HkkDCHwP6zJwZw-13" value="leave feedback" style="ellipse;whiteSpace=wrap;html=1;" vertex="1" parent="wTLGTZsy0lD8wvmcB5D7-1">
          <mxGeometry x="320" y="530" width="80" height="40" as="geometry" />
        </mxCell>
        <mxCell id="a8mAN6HkkDCHwP6zJwZw-16" value="write review" style="ellipse;whiteSpace=wrap;html=1;" vertex="1" parent="wTLGTZsy0lD8wvmcB5D7-1">
          <mxGeometry x="320" y="593" width="80" height="40" as="geometry" />
        </mxCell>
        <mxCell id="a8mAN6HkkDCHwP6zJwZw-17" value="rate review" style="ellipse;whiteSpace=wrap;html=1;" vertex="1" parent="wTLGTZsy0lD8wvmcB5D7-1">
          <mxGeometry x="320" y="643" width="80" height="40" as="geometry" />
        </mxCell>
        <mxCell id="a8mAN6HkkDCHwP6zJwZw-18" value="report review" style="ellipse;whiteSpace=wrap;html=1;" vertex="1" parent="wTLGTZsy0lD8wvmcB5D7-1">
          <mxGeometry x="320" y="693" width="80" height="40" as="geometry" />
        </mxCell>
      </root>
    </mxGraphModel>
  </diagram>
  <diagram id="yghhI6yFopHG-gJP4d3H" name="Page-3">
    <mxGraphModel dx="2031" dy="1020" grid="1" gridSize="10" guides="1" tooltips="1" connect="1" arrows="1" fold="1" page="1" pageScale="1" pageWidth="827" pageHeight="1169" math="0" shadow="0">
      <root>
        <mxCell id="BJwraiGA9CT58oNu3YFa-0" />
        <mxCell id="BJwraiGA9CT58oNu3YFa-1" parent="BJwraiGA9CT58oNu3YFa-0" />
      </root>
    </mxGraphModel>
  </diagram>
</mxfile>
